<svg width="24" height="24" viewBox="0 0 24 24" fill="none" xmlns="http://www.w3.org/2000/svg">
<path d="M4 10C4 6.229 4 4.343 5.172 3.172C6.344 2.001 8.229 2 12 2H13.5C17.271 2 19.157 2 20.328 3.172C21.499 4.344 21.5 6.229 21.5 10V14C21.5 17.771 21.5 19.657 20.328 20.828C19.156 21.999 17.271 22 13.5 22H12C8.229 22 6.343 22 5.172 20.828C4.001 19.656 4 17.771 4 14V10Z" stroke="#0D99FF" stroke-width="1.5"/>
<path d="M9.80021 11.974C9.37321 11.23 9.16721 10.623 9.04321 10.007C8.85921 9.09698 9.28021 8.20698 9.97621 7.63898C10.2712 7.39898 10.6082 7.48098 10.7822 7.79398L11.1752 8.49898C11.4862 9.05698 11.6422 9.33698 11.6112 9.63298C11.5812 9.92898 11.3712 10.17 10.9512 10.653L9.80021 11.974ZM9.80021 11.974C10.7003 13.5164 11.9838 14.7999 13.5262 15.7M13.5262 15.7C14.2702 16.127 14.8772 16.333 15.4932 16.457C16.4032 16.641 17.2932 16.22 17.8612 15.524C18.1012 15.229 18.0192 14.892 17.7062 14.718L17.0022 14.325C16.4422 14.014 16.1632 13.858 15.8672 13.889C15.5712 13.919 15.3302 14.129 14.8472 14.549L13.5262 15.7Z" stroke="#0D99FF" stroke-width="1.5" stroke-linejoin="round"/>
<path d="M5 6H2.5M5 12H2.5M5 18H2.5" stroke="#0D99FF" stroke-width="1.5" stroke-linecap="round" stroke-linejoin="round"/>
</svg>
