<svg width="32" height="32" viewBox="0 0 32 32" fill="none" xmlns="http://www.w3.org/2000/svg">
<path d="M16 26.6667H6.66667C6.31305 26.6667 5.97391 26.5263 5.72386 26.2762C5.47381 26.0262 5.33333 25.687 5.33333 25.3334V6.66675C5.33333 6.31313 5.47381 5.97399 5.72386 5.72394C5.97391 5.47389 6.31305 5.33341 6.66667 5.33341H13.3333V9.33341C13.3333 10.3943 13.7548 11.4117 14.5049 12.1618C15.2551 12.912 16.2725 13.3334 17.3333 13.3334H21.3333V14.6667C21.3333 15.0204 21.4738 15.3595 21.7239 15.6096C21.9739 15.8596 22.313 16.0001 22.6667 16.0001C23.0203 16.0001 23.3594 15.8596 23.6095 15.6096C23.8595 15.3595 24 15.0204 24 14.6667V12.0001C24 12.0001 24 12.0001 24 11.9201C23.9861 11.7976 23.9593 11.6769 23.92 11.5601V11.4401C23.8559 11.303 23.7704 11.177 23.6667 11.0667V11.0667L15.6667 3.06675C15.5564 2.96304 15.4304 2.87752 15.2933 2.81341C15.2535 2.80776 15.2131 2.80776 15.1733 2.81341C15.0379 2.73574 14.8883 2.68587 14.7333 2.66675H6.66667C5.6058 2.66675 4.58839 3.08818 3.83824 3.83832C3.08809 4.58847 2.66667 5.60588 2.66667 6.66675V25.3334C2.66667 26.3943 3.08809 27.4117 3.83824 28.1618C4.58839 28.912 5.6058 29.3334 6.66667 29.3334H16C16.3536 29.3334 16.6928 29.1929 16.9428 28.9429C17.1929 28.6928 17.3333 28.3537 17.3333 28.0001C17.3333 27.6465 17.1929 27.3073 16.9428 27.0573C16.6928 26.8072 16.3536 26.6667 16 26.6667ZM16 7.21341L19.4533 10.6667H17.3333C16.9797 10.6667 16.6406 10.5263 16.3905 10.2762C16.1405 10.0262 16 9.68704 16 9.33341V7.21341ZM9.33333 10.6667C8.97971 10.6667 8.64057 10.8072 8.39053 11.0573C8.14048 11.3073 8 11.6465 8 12.0001C8 12.3537 8.14048 12.6928 8.39053 12.9429C8.64057 13.1929 8.97971 13.3334 9.33333 13.3334H10.6667C11.0203 13.3334 11.3594 13.1929 11.6095 12.9429C11.8595 12.6928 12 12.3537 12 12.0001C12 11.6465 11.8595 11.3073 11.6095 11.0573C11.3594 10.8072 11.0203 10.6667 10.6667 10.6667H9.33333ZM28.9467 27.0534L27.3867 25.5067C27.8853 24.6364 28.0849 23.6266 27.9548 22.6321C27.8248 21.6375 27.3723 20.713 26.6667 20.0001V20.0001C26.0174 19.3276 25.1806 18.8663 24.2654 18.6763C23.3501 18.4862 22.3989 18.5762 21.5355 18.9345C20.6722 19.2928 19.9367 19.9028 19.425 20.685C18.9133 21.4673 18.6491 22.3855 18.6667 23.3201C18.6621 24.1243 18.8678 24.9158 19.2635 25.616C19.6592 26.3162 20.231 26.9008 20.9223 27.3118C21.6136 27.7228 22.4004 27.946 23.2045 27.9591C24.0087 27.9723 24.8023 27.7749 25.5067 27.3868L27.0533 28.9467C27.1773 29.0717 27.3248 29.1709 27.4872 29.2386C27.6497 29.3063 27.824 29.3411 28 29.3411C28.176 29.3411 28.3503 29.3063 28.5128 29.2386C28.6752 29.1709 28.8227 29.0717 28.9467 28.9467C29.0716 28.8228 29.1708 28.6753 29.2385 28.5129C29.3062 28.3504 29.3411 28.1761 29.3411 28.0001C29.3411 27.8241 29.3062 27.6498 29.2385 27.4873C29.1708 27.3248 29.0716 27.1774 28.9467 27.0534V27.0534ZM24.72 24.7201C24.3392 25.0782 23.8361 25.2776 23.3133 25.2776C22.7906 25.2776 22.2875 25.0782 21.9067 24.7201C21.5396 24.3465 21.3338 23.8438 21.3333 23.3201C21.3306 23.0571 21.3811 22.7963 21.482 22.5534C21.5828 22.3104 21.7318 22.0905 21.92 21.9067C22.2755 21.5532 22.7522 21.3482 23.2533 21.3334C23.5229 21.3168 23.793 21.3562 24.0466 21.4489C24.3003 21.5417 24.532 21.6858 24.7273 21.8724C24.9226 22.0589 25.0773 22.2838 25.1816 22.5329C25.2858 22.782 25.3375 23.05 25.3333 23.3201C25.3223 23.8495 25.1017 24.353 24.72 24.7201V24.7201ZM17.3333 16.0001H9.33333C8.97971 16.0001 8.64057 16.1406 8.39053 16.3906C8.14048 16.6407 8 16.9798 8 17.3334C8 17.687 8.14048 18.0262 8.39053 18.2762C8.64057 18.5263 8.97971 18.6667 9.33333 18.6667H17.3333C17.687 18.6667 18.0261 18.5263 18.2761 18.2762C18.5262 18.0262 18.6667 17.687 18.6667 17.3334C18.6667 16.9798 18.5262 16.6407 18.2761 16.3906C18.0261 16.1406 17.687 16.0001 17.3333 16.0001ZM14.6667 24.0001C15.0203 24.0001 15.3594 23.8596 15.6095 23.6096C15.8595 23.3595 16 23.0204 16 22.6667C16 22.3131 15.8595 21.974 15.6095 21.7239C15.3594 21.4739 15.0203 21.3334 14.6667 21.3334H9.33333C8.97971 21.3334 8.64057 21.4739 8.39053 21.7239C8.14048 21.974 8 22.3131 8 22.6667C8 23.0204 8.14048 23.3595 8.39053 23.6096C8.64057 23.8596 8.97971 24.0001 9.33333 24.0001H14.6667Z" fill="#0B2545"/>
</svg>
