<svg width="28" height="30" viewBox="0 0 28 30" fill="none" xmlns="http://www.w3.org/2000/svg">
<g filter="url(#filter0_d_4741_526)">
<path d="M12.75 3H14.75C15.3023 3 15.75 3.44772 15.75 4V4.56879C15.75 4.99659 16.0371 5.36825 16.4322 5.53228C16.8275 5.69638 17.2877 5.63384 17.5903 5.33123L17.9926 4.92891C18.3831 4.53838 19.0163 4.53838 19.4068 4.92891L20.821 6.34312C21.2116 6.73365 21.2115 7.36681 20.821 7.75734L20.4188 8.1596C20.1161 8.46223 20.0536 8.92247 20.2177 9.31774C20.3817 9.71287 20.7534 10 21.1813 10L21.75 10C22.3023 10 22.75 10.4477 22.75 11V13C22.75 13.5523 22.3023 14 21.75 14H21.1812C20.7534 14 20.3818 14.2871 20.2177 14.6822C20.0536 15.0775 20.1161 15.5377 20.4188 15.8403L20.821 16.2426C21.2116 16.6331 21.2116 17.2663 20.821 17.6568L19.4068 19.071C19.0163 19.4616 18.3831 19.4616 17.9926 19.071L17.5903 18.6688C17.2877 18.3661 16.8275 18.3036 16.4322 18.4677C16.0371 18.6318 15.75 19.0034 15.75 19.4312V20C15.75 20.5523 15.3023 21 14.75 21H12.75C12.1977 21 11.75 20.5523 11.75 20V19.4313C11.75 19.0034 11.4629 18.6317 11.0677 18.4677C10.6725 18.3036 10.2122 18.3661 9.9096 18.6688L9.50732 19.071C9.11679 19.4616 8.48363 19.4616 8.09311 19.071L6.67889 17.6568C6.28837 17.2663 6.28837 16.6331 6.67889 16.2426L7.08123 15.8403C7.38384 15.5377 7.44638 15.0775 7.28228 14.6822C7.11825 14.2871 6.74659 14 6.31879 14H5.75C5.19772 14 4.75 13.5523 4.75 13V11C4.75 10.4477 5.19772 10 5.75 10L6.31877 10C6.74658 10 7.11825 9.71288 7.28229 9.31776C7.4464 8.9225 7.38386 8.46229 7.08123 8.15966L6.67891 7.75734C6.28838 7.36681 6.28838 6.73365 6.67891 6.34313L8.09312 4.92891C8.48365 4.53839 9.11681 4.53839 9.50734 4.92891L9.90966 5.33123C10.2123 5.63386 10.6725 5.6964 11.0678 5.53229C11.4629 5.36825 11.75 4.99658 11.75 4.56876V4C11.75 3.44772 12.1977 3 12.75 3Z" stroke="#42B0FF" stroke-opacity="0.87451" stroke-width="1.5" shape-rendering="crispEdges"/>
<path d="M15.75 12C15.75 13.1046 14.8546 14 13.75 14C12.6454 14 11.75 13.1046 11.75 12C11.75 10.8954 12.6454 10 13.75 10C14.8546 10 15.75 10.8954 15.75 12Z" stroke="#42B0FF" stroke-opacity="0.87451" stroke-width="1.5" shape-rendering="crispEdges"/>
</g>
<defs>
<filter id="filter0_d_4741_526" x="0" y="2.25" width="27.5" height="27.5" filterUnits="userSpaceOnUse" color-interpolation-filters="sRGB">
<feFlood flood-opacity="0" result="BackgroundImageFix"/>
<feColorMatrix in="SourceAlpha" type="matrix" values="0 0 0 0 0 0 0 0 0 0 0 0 0 0 0 0 0 0 127 0" result="hardAlpha"/>
<feOffset dy="4"/>
<feGaussianBlur stdDeviation="2"/>
<feComposite in2="hardAlpha" operator="out"/>
<feColorMatrix type="matrix" values="0 0 0 0 0 0 0 0 0 0 0 0 0 0 0 0 0 0 0.25 0"/>
<feBlend mode="normal" in2="BackgroundImageFix" result="effect1_dropShadow_4741_526"/>
<feBlend mode="normal" in="SourceGraphic" in2="effect1_dropShadow_4741_526" result="shape"/>
</filter>
</defs>
</svg>
